<svg width="100" height="100" viewBox="0 0 100 100" fill="none" xmlns="http://www.w3.org/2000/svg">
<path d="M37.6401 24.9875C26.1141 47.1198 18.9107 66 11.7505 88.6268C7.57697 88.1095 5.29846 88.3463 1.80031 84.9426C-1.69786 81.5395 0.805298 77.311 1.80031 74.9426C2.79532 72.5742 34.3116 9.18003 37.6401 11.0401C40.9687 12.9002 45.3515 19.7244 45.3515 19.7244C44.6006 30.4684 45.5506 36.0552 48.8341 45.5138C46.5341 45.5575 44.391 45.1988 42.3665 43.9349C40.3419 42.6709 39.3002 41.6322 37.6401 39.1981C36.2436 34.0742 36.4341 30.9047 37.6401 24.9875Z" fill="#1B325F"/>
<path d="M61.9408 24.9409C73.4672 46.9995 80.6707 65.8163 87.8314 88.3684C92.005 87.8526 94.2836 88.0889 97.7816 84.6963C101.28 81.3042 98.7766 77.0905 97.7816 74.73C96.7866 72.3695 65.2692 9.1861 61.9408 11.04C58.6119 12.8939 54.2289 19.6953 54.2289 19.6953C54.9801 30.4035 54.0299 35.9717 50.7463 45.3988C53.0463 45.4423 55.1896 45.0849 57.2139 43.8252C59.2388 42.5654 60.2806 41.5301 61.9408 39.1041C63.3373 33.9973 63.1468 30.8384 61.9408 24.9409Z" fill="#1B325F"/>
<path d="M40.796 61.2891C42.1491 56.8629 47.5989 50.084 49.4975 50.4912C54.0254 54.4767 55.3239 56.9007 57.2139 61.2891C55.2786 68.3794 53.4965 71.6847 49.4975 76.7894C45.5524 71.6957 43.5694 68.4384 40.796 61.2891Z" fill="#F26C4F"/>
<path d="M30.4068 35.2086C30.431 35.2054 30.4553 35.2021 30.4795 35.1989C31.3811 34.7966 32.1404 24.048 30.4068 22.5271C28.6268 20.9656 68.0209 23.8745 68.1592 22.5271C67.5906 27.6939 67.6886 30.4336 68.1592 35.2086C53.5915 31.5329 45.2586 33.2262 30.4795 35.1989C30.4553 35.2097 30.4311 35.213 30.4068 35.2086Z" fill="#1B325F"/>
<path d="M27.6119 59.1579C35.3054 59.1579 41.5423 52.56 41.5423 44.421C41.5423 36.2821 35.3054 29.6842 27.6119 29.6842C19.9184 29.6842 13.6816 36.2821 13.6816 44.421C13.6816 52.56 19.9184 59.1579 27.6119 59.1579Z" fill="white" stroke="#F26C4F" stroke-width="5"/>
<path d="M2.68546 59.6928C1.59154 60.572 1.37852 62.223 2.20965 63.3802C3.04079 64.5374 4.60135 64.7627 5.69527 63.8837L2.68546 59.6928ZM14.5697 50.1406L2.68546 59.6928L5.69527 63.8837L17.5795 54.3314L14.5697 50.1406Z" fill="#F26C4F"/>
<path d="M34.0796 44.421C34.0796 48.5182 31.2704 51.7895 27.8607 51.7895C24.4509 51.7895 21.6418 48.5182 21.6418 44.421C21.6418 40.3238 24.4509 37.0526 27.8607 37.0526C31.2704 37.0526 34.0796 40.3238 34.0796 44.421Z" fill="#1B325F" stroke="#1B325F"/>
<path d="M67.9105 46.7895C67.9105 48.6976 66.5567 50.2105 64.9254 50.2105C63.294 50.2105 61.9403 48.6976 61.9403 46.7895C61.9403 44.8814 63.294 43.3684 64.9254 43.3684C66.5567 43.3684 67.9105 44.8814 67.9105 46.7895Z" fill="#1B325F" stroke="#1B325F"/>
</svg>
